<svg width="140" height="172" viewBox="0 0 140 172" fill="none" xmlns="http://www.w3.org/2000/svg">
<rect width="140" height="172" fill="#D3D3D3"/>
<path d="M46.0448 144.253C44.8006 131.587 51.4667 121.663 55.2 109.6C55.2 109.6 46.6666 98.4127 44.8 92.3807C39.2 78.508 37.3333 63.4285 38.5776 48.9523H35.4667C31.1109 44.7299 32.9776 80.9203 28 97.2059C25.5115 105.651 13.6891 121.333 13.6891 132.793C13.6891 137.016 14.9333 140.635 16.1782 144.254L46.0448 144.253Z" fill="#030303"/>
<path d="M93.3335 144.253H123.2C125.067 140.634 125.689 136.412 125.689 132.793C125.689 121.332 113.867 106.254 111.378 97.2059C107.023 80.9203 108.267 44.7299 103.912 48.9523H100.801C102.045 64.0318 99.5565 78.508 94.5783 92.3807C92.0892 98.4127 87.6001 110.8 87.6001 110.8C91.9558 122.863 95.2001 131.587 93.3335 144.253Z" fill="#030303"/>
<path d="M51.0223 171.999H88.978C90.2222 169.586 90.8447 165.967 90.8447 162.952C98.3113 150.888 95.2004 132.19 90.8447 112.285V83.333H49.1556V111.682C37.3332 126.761 39.8223 144.253 49.1556 162.348C49.1556 165.967 49.778 169.586 51.0223 171.999Z" fill="#727272"/>
<path d="M97.0666 171.999L92.7109 130.984C88.3557 138.825 76.5333 144.253 69.6891 144.253C62.8448 144.253 51.0224 138.825 46.6667 130.983L42.9333 171.999H97.0666Z" fill="#E8EAE9"/>
<path d="M51.6448 171.999L41.0672 123.142L46.0448 117.714L25.5115 122.539C13.0672 126.158 3.73391 136.412 2.48908 149.078C1.86667 156.317 0.622416 164.761 0 171.999H51.6448Z" fill="#344A5E"/>
<path d="M88.3558 172H140C139.378 164.762 138.133 156.317 137.511 148.476C136.267 135.809 126.933 125.556 114.489 121.937L93.9552 117.111L98.9328 122.54L88.3558 172Z" fill="#344A5E"/>
<path d="M107.645 56.7937C107.645 77.3018 90.8448 93.5874 69.6891 93.5874C48.5334 93.5874 31.7334 77.3018 31.7334 56.7937C31.7334 36.2857 48.5334 20 69.6891 20C90.8448 20 107.645 36.2857 107.645 56.7937Z" fill="#030303"/>
<path d="M65.2283 116.96C52.4508 113.493 48.8 104.48 48.8 104.48C48.8 105.173 48.8 103.2 48.8 103.2L50.0168 133.6C59.1436 132.213 68.879 130.133 75.5718 125.973C89.566 117.653 92 102.4 92 102.4C89.566 107.946 78.0058 120.426 65.2283 116.96Z" fill="#1A1A1A"/>
<path d="M43.5559 172H59.1116C52.8892 150.286 48.5335 129.778 49.1559 111.683L31.7335 132.191L31.1111 132.794L42.3111 138.826L31.1111 145.461L43.5559 172Z" fill="#415A6B"/>
<path d="M96.4446 172L108.889 145.46L97.6889 138.825L108.889 132.793L108.266 132.19L90.844 111.682C91.4665 128.571 87.1107 149.681 80.8883 171.999H96.4446V172Z" fill="#415A6B"/>
<path d="M78.3999 42.3174C76.5333 45.9364 74.0442 49.5555 71.5557 53.1745C65.3333 61.0159 55.3781 65.8411 42.3115 65.8411C41.689 65.8411 40.4448 65.8411 39.8224 65.8411C39.2 69.4601 38.5781 73.0792 38.5781 76.6982C38.5781 99.6186 52.2672 118.317 69.689 118.317C86.489 118.317 100.8 99.6186 100.8 76.6982C100.8 73.6825 100.8 71.2697 100.177 68.8568C88.3557 63.4282 80.889 53.1745 78.3999 42.3174Z" fill="#727272"/>
</svg>
