<svg width="140" height="172" viewBox="0 0 140 172" fill="none" xmlns="http://www.w3.org/2000/svg">
<rect width="140" height="172" fill="#D3D3D3"/>
<path d="M106.095 60.8761C107.52 54.8483 106.599 49.4414 104.037 48.7996C101.476 48.1577 98.2444 52.5238 96.8192 58.5516C95.3941 64.5794 96.3152 69.9862 98.8765 70.6281C101.438 71.2699 104.67 66.9038 106.095 60.8761Z" fill="#727272"/>
<path d="M35.2879 61.1889C36.7131 67.2167 39.9448 71.5828 42.5062 70.9409C45.0675 70.299 45.9886 64.8922 44.5635 58.8644C43.1383 52.8367 39.9066 48.4705 37.3453 49.1124C34.7839 49.7543 33.8628 55.1611 35.2879 61.1889Z" fill="#727272"/>
<path d="M101.443 28.7694L100.761 52.641C100.761 52.641 100.078 76.5129 95.3051 86.3421V121.447H48.9316L46.8858 89.8524C46.8858 89.8524 40.7481 70.1933 41.4302 54.7474C41.4302 54.7474 38.7021 39.1605 38.7021 28.7691C38.7021 18.3777 57.493 5.59957 70 5.59961C83.413 5.59965 101.443 17.0948 101.443 28.7694Z" fill="#727272"/>
<path d="M65.2988 101.789C50.9775 98.2788 46.8857 89.1513 46.8857 89.1513C46.8857 89.8536 46.8857 89.8536 46.8857 89.8536L48.2495 118.64C58.4789 117.236 69.3906 115.129 76.892 110.917C92.577 102.491 95.3051 87.0449 95.3051 87.0449C92.577 92.6616 79.6201 105.299 65.2988 101.789Z" fill="#474747"/>
<path d="M95.3182 172L103.52 121.859H71.3961L33.1201 126.874L41.322 172H95.3182Z" fill="#CED6E0"/>
<path d="M49.12 172C43.6645 151.639 40.066 127.065 40.066 127.065L37.3379 117.235C37.3379 117.235 13.6398 124.881 7.24792e-05 131.2C7.62939e-05 141.2 7.62939e-05 148.962 7.62939e-05 161.6L0 172H49.12Z" fill="#344A5E"/>
<path d="M140 171.999V158.659C140 145.319 140 145.599 140 131.199C126.361 125.583 108.944 115.831 108.944 115.831C102.807 127.065 99.9999 154.447 99.9999 171.999L140 171.999Z" fill="#344A5E"/>
<path d="M84.5498 171.999C83.1861 167.787 75.5279 147.425 75.5279 145.319C75.5279 143.213 75.5279 138.298 75.5279 138.298L68.7087 136.894L67.345 145.319C67.345 145.319 59.7225 168.488 59.0403 171.999H84.5498Z" fill="#F05540"/>
<path d="M59.8429 128.469C59.8429 128.469 67.3443 141.809 67.3443 145.32C67.3443 145.32 72.1183 143.916 74.8457 145.32C74.8457 145.32 81.6656 131.979 86.4389 130.575V127.065C87.1217 123.555 63.9347 117.236 59.8429 128.469Z" fill="#F3705A"/>
<path d="M95.3052 103.192L71.4366 122.149L93.2593 143.212L102.125 116.533L95.3052 103.192Z" fill="#F3F3F3"/>
<path d="M47.5676 105.299L71.4362 122.149L52.3409 143.213C52.3409 143.213 48.2492 131.277 46.2033 128.468C43.4752 125.66 43.4752 123.553 43.4752 122.149C42.7943 120.745 47.5676 105.299 47.5676 105.299Z" fill="#F3F3F3"/>
<path d="M44.0005 171.999H58.4005C52.2628 141.809 47.5678 105.299 47.5678 105.299L29.1547 122.149L35.9745 127.064L26.4272 133.383L44.0005 171.999Z" fill="#415A6B"/>
<path d="M102.24 171.999C109.742 151.638 117.129 131.277 117.129 131.277L107.581 124.256L118.493 121.447L95.9878 103.192C95.9878 103.192 93.2123 141.808 89.1205 171.999H102.24Z" fill="#415A6B"/>
</svg>
